<?xml version="1.0" encoding="UTF-8" standalone="no"?><svg xmlns="http://www.w3.org/2000/svg" xmlns:xlink="http://www.w3.org/1999/xlink" contentScriptType="application/ecmascript" contentStyleType="text/css" height="581px" preserveAspectRatio="none" style="width:508px;height:581px;" version="1.1" viewBox="0 0 508 581" width="508px" zoomAndPan="magnify"><defs/><g><rect fill="#FFFFFF" height="488.7266" style="stroke:#A80036;stroke-width:1.0;" width="10" x="46.5" y="75.4297"/><rect fill="#FFFFFF" height="40.1328" style="stroke:#A80036;stroke-width:1.0;" width="10" x="51.5" y="117.5625"/><rect fill="#FFFFFF" height="40.1328" style="stroke:#A80036;stroke-width:1.0;" width="10" x="51.5" y="225.9609"/><rect fill="#FFFFFF" height="29.1328" style="stroke:#A80036;stroke-width:1.0;" width="10" x="430.5" y="302.2266"/><rect fill="#FFFFFF" height="377.4609" style="stroke:#000000;stroke-width:2.0;" width="492" x="10" y="179.6953"/><rect fill="#FFFFFF" height="161.6641" style="stroke:#000000;stroke-width:2.0;" width="359" x="20" y="346.3594"/><rect fill="#FFFFFF" height="73.2656" style="stroke:none;stroke-width:1.0;" width="359" x="20" y="434.7578"/><line style="stroke:#A80036;stroke-width:1.0;stroke-dasharray:5.0,5.0;" x1="51" x2="51" y1="36.2969" y2="574.1563"/><line style="stroke:#A80036;stroke-width:1.0;stroke-dasharray:5.0,5.0;" x1="301" x2="301" y1="36.2969" y2="574.1563"/><line style="stroke:#A80036;stroke-width:1.0;stroke-dasharray:5.0,5.0;" x1="435" x2="435" y1="36.2969" y2="574.1563"/><rect fill="#FEFECE" height="30.2969" style="stroke:#A80036;stroke-width:1.5;" width="43" x="30" y="5"/><text fill="#000000" font-family="sans-serif" font-size="14" lengthAdjust="spacing" textLength="29" x="37" y="24.9951">:Ant</text><rect fill="#FEFECE" height="30.2969" style="stroke:#A80036;stroke-width:1.5;" width="135" x="234" y="5"/><text fill="#000000" font-family="sans-serif" font-size="14" lengthAdjust="spacing" textLength="121" x="241" y="24.9951">destination:Node</text><rect fill="#FEFECE" height="30.2969" style="stroke:#A80036;stroke-width:1.5;" width="113" x="379" y="5"/><text fill="#000000" font-family="sans-serif" font-size="14" lengthAdjust="spacing" textLength="99" x="386" y="24.9951">colony:Queen</text><rect fill="#FFFFFF" height="488.7266" style="stroke:#A80036;stroke-width:1.0;" width="10" x="46.5" y="75.4297"/><rect fill="#FFFFFF" height="40.1328" style="stroke:#A80036;stroke-width:1.0;" width="10" x="51.5" y="117.5625"/><rect fill="#FFFFFF" height="40.1328" style="stroke:#A80036;stroke-width:1.0;" width="10" x="51.5" y="225.9609"/><rect fill="#FFFFFF" height="29.1328" style="stroke:#A80036;stroke-width:1.0;" width="10" x="430.5" y="302.2266"/><line style="stroke:#A80036;stroke-width:1.0;" x1="51.5" x2="98.5" y1="62.4297" y2="62.4297"/><line style="stroke:#A80036;stroke-width:1.0;" x1="98.5" x2="98.5" y1="62.4297" y2="75.4297"/><line style="stroke:#A80036;stroke-width:1.0;" x1="57.5" x2="98.5" y1="75.4297" y2="75.4297"/><polygon fill="#A80036" points="67.5,71.4297,57.5,75.4297,67.5,79.4297" style="stroke:#A80036;stroke-width:1.0;"/><text fill="#000000" font-family="sans-serif" font-size="13" lengthAdjust="spacing" textLength="53" x="63.5" y="57.3638">collect()</text><line style="stroke:#A80036;stroke-width:1.0;" x1="56.5" x2="103.5" y1="104.5625" y2="104.5625"/><line style="stroke:#A80036;stroke-width:1.0;" x1="103.5" x2="103.5" y1="104.5625" y2="117.5625"/><line style="stroke:#A80036;stroke-width:1.0;" x1="62.5" x2="103.5" y1="117.5625" y2="117.5625"/><polygon fill="#A80036" points="72.5,113.5625,62.5,117.5625,72.5,121.5625" style="stroke:#A80036;stroke-width:1.0;"/><text fill="#000000" font-family="sans-serif" font-size="13" lengthAdjust="spacing" textLength="123" x="68.5" y="99.4966">getFoodCollected()</text><line style="stroke:#A80036;stroke-width:1.0;stroke-dasharray:2.0,2.0;" x1="61.5" x2="103.5" y1="156.6953" y2="156.6953"/><line style="stroke:#A80036;stroke-width:1.0;stroke-dasharray:2.0,2.0;" x1="103.5" x2="103.5" y1="156.6953" y2="169.6953"/><line style="stroke:#A80036;stroke-width:1.0;stroke-dasharray:2.0,2.0;" x1="56.5" x2="103.5" y1="169.6953" y2="169.6953"/><polygon fill="#A80036" points="66.5,165.6953,56.5,169.6953,66.5,173.6953" style="stroke:#A80036;stroke-width:1.0;"/><text fill="#000000" font-family="sans-serif" font-size="13" lengthAdjust="spacing" textLength="90" x="68.5" y="151.6294">foodCollected</text><path d="M10,179.6953 L74,179.6953 L74,186.6953 L64,196.6953 L10,196.6953 L10,179.6953 " fill="#EEEEEE" style="stroke:#000000;stroke-width:1.0;"/><rect fill="none" height="377.4609" style="stroke:#000000;stroke-width:2.0;" width="492" x="10" y="179.6953"/><text fill="#000000" font-family="sans-serif" font-size="13" font-weight="bold" lengthAdjust="spacing" textLength="19" x="25" y="192.7622">alt</text><text fill="#000000" font-family="sans-serif" font-size="11" font-weight="bold" lengthAdjust="spacing" textLength="127" x="89" y="191.9058">[foodCollected != 0]</text><line style="stroke:#A80036;stroke-width:1.0;" x1="56.5" x2="103.5" y1="212.9609" y2="212.9609"/><line style="stroke:#A80036;stroke-width:1.0;" x1="103.5" x2="103.5" y1="212.9609" y2="225.9609"/><line style="stroke:#A80036;stroke-width:1.0;" x1="62.5" x2="103.5" y1="225.9609" y2="225.9609"/><polygon fill="#A80036" points="72.5,221.9609,62.5,225.9609,72.5,229.9609" style="stroke:#A80036;stroke-width:1.0;"/><text fill="#000000" font-family="sans-serif" font-size="13" lengthAdjust="spacing" textLength="76" x="68.5" y="207.895">getColony()</text><line style="stroke:#A80036;stroke-width:1.0;stroke-dasharray:2.0,2.0;" x1="61.5" x2="103.5" y1="265.0938" y2="265.0938"/><line style="stroke:#A80036;stroke-width:1.0;stroke-dasharray:2.0,2.0;" x1="103.5" x2="103.5" y1="265.0938" y2="278.0938"/><line style="stroke:#A80036;stroke-width:1.0;stroke-dasharray:2.0,2.0;" x1="56.5" x2="103.5" y1="278.0938" y2="278.0938"/><polygon fill="#A80036" points="66.5,274.0938,56.5,278.0938,66.5,282.0938" style="stroke:#A80036;stroke-width:1.0;"/><text fill="#000000" font-family="sans-serif" font-size="13" lengthAdjust="spacing" textLength="43" x="68.5" y="260.0278">colony</text><polygon fill="#A80036" points="418.5,298.2266,428.5,302.2266,418.5,306.2266" style="stroke:#A80036;stroke-width:1.0;"/><line style="stroke:#A80036;stroke-width:1.0;" x1="56.5" x2="424.5" y1="302.2266" y2="302.2266"/><text fill="#000000" font-family="sans-serif" font-size="13" lengthAdjust="spacing" textLength="133" x="63.5" y="297.1606">getCollectCapacity()</text><polygon fill="#A80036" points="67.5,327.3594,57.5,331.3594,67.5,335.3594" style="stroke:#A80036;stroke-width:1.0;"/><line style="stroke:#A80036;stroke-width:1.0;stroke-dasharray:2.0,2.0;" x1="61.5" x2="434.5" y1="331.3594" y2="331.3594"/><text fill="#000000" font-family="sans-serif" font-size="13" lengthAdjust="spacing" textLength="100" x="73.5" y="326.2935">collectCapacity</text><path d="M20,346.3594 L84,346.3594 L84,353.3594 L74,363.3594 L20,363.3594 L20,346.3594 " fill="#EEEEEE" style="stroke:#000000;stroke-width:1.0;"/><rect fill="none" height="161.6641" style="stroke:#000000;stroke-width:2.0;" width="359" x="20" y="346.3594"/><text fill="#000000" font-family="sans-serif" font-size="13" font-weight="bold" lengthAdjust="spacing" textLength="19" x="35" y="359.4263">alt</text><text fill="#000000" font-family="sans-serif" font-size="11" font-weight="bold" lengthAdjust="spacing" textLength="170" x="99" y="358.5698">[nbFood &lt; collectCapacity]</text><line style="stroke:#A80036;stroke-width:1.0;" x1="56.5" x2="98.5" y1="384.625" y2="384.625"/><line style="stroke:#A80036;stroke-width:1.0;" x1="98.5" x2="98.5" y1="384.625" y2="397.625"/><line style="stroke:#A80036;stroke-width:1.0;" x1="57.5" x2="98.5" y1="397.625" y2="397.625"/><polygon fill="#A80036" points="67.5,393.625,57.5,397.625,67.5,401.625" style="stroke:#A80036;stroke-width:1.0;"/><text fill="#000000" font-family="sans-serif" font-size="13" lengthAdjust="spacing" textLength="169" x="63.5" y="379.5591">setFoodCollected(nbFood)</text><polygon fill="#A80036" points="289.5,422.7578,299.5,426.7578,289.5,430.7578" style="stroke:#A80036;stroke-width:1.0;"/><line style="stroke:#A80036;stroke-width:1.0;" x1="56.5" x2="295.5" y1="426.7578" y2="426.7578"/><text fill="#000000" font-family="sans-serif" font-size="13" lengthAdjust="spacing" textLength="69" x="63.5" y="421.6919">setFood(0)</text><line style="stroke:#000000;stroke-width:1.0;stroke-dasharray:2.0,2.0;" x1="20" x2="379" y1="435.7578" y2="435.7578"/><line style="stroke:#A80036;stroke-width:1.0;" x1="56.5" x2="98.5" y1="457.8906" y2="457.8906"/><line style="stroke:#A80036;stroke-width:1.0;" x1="98.5" x2="98.5" y1="457.8906" y2="470.8906"/><line style="stroke:#A80036;stroke-width:1.0;" x1="57.5" x2="98.5" y1="470.8906" y2="470.8906"/><polygon fill="#A80036" points="67.5,466.8906,57.5,470.8906,67.5,474.8906" style="stroke:#A80036;stroke-width:1.0;"/><text fill="#000000" font-family="sans-serif" font-size="13" lengthAdjust="spacing" textLength="222" x="63.5" y="452.8247">setFoodCollected(collectCapacity)</text><polygon fill="#A80036" points="289.5,496.0234,299.5,500.0234,289.5,504.0234" style="stroke:#A80036;stroke-width:1.0;"/><line style="stroke:#A80036;stroke-width:1.0;" x1="56.5" x2="295.5" y1="500.0234" y2="500.0234"/><text fill="#000000" font-family="sans-serif" font-size="13" lengthAdjust="spacing" textLength="221" x="63.5" y="494.9575">setFood(nbFood - collectCapacity)</text><line style="stroke:#A80036;stroke-width:1.0;" x1="56.5" x2="98.5" y1="536.1563" y2="536.1563"/><line style="stroke:#A80036;stroke-width:1.0;" x1="98.5" x2="98.5" y1="536.1563" y2="549.1563"/><line style="stroke:#A80036;stroke-width:1.0;" x1="57.5" x2="98.5" y1="549.1563" y2="549.1563"/><polygon fill="#A80036" points="67.5,545.1563,57.5,549.1563,67.5,553.1563" style="stroke:#A80036;stroke-width:1.0;"/><text fill="#000000" font-family="sans-serif" font-size="13" lengthAdjust="spacing" textLength="152" x="63.5" y="531.0903">setIsBacktracking(true)</text><!--MD5=[ed3f70a9cfeb6e4ebe7a71e22ac1c1aa]
@startuml
'https://plantuml.com/sequence-diagram
skinparam style strictuml
'autonumber
hide footbox

'title Méthode jouer()
participant ":Ant" as ant
participant "destination:Node" as destination
participant "colony:Queen" as colony

'Pour le bitset.. prof a dit pas besoin
'participant ":Graphe" as graphe
'participant "bitPlay:BitSet[][]" as bitPlay
'participant "bitPlay[i][j]:BitSet" as bitSet

ant -> ant ++ : collect()
ant -> ant ++ : getFoodCollected()
return foodCollected

alt foodCollected != 0
    ant -> ant ++ : getColony()
    return colony
    ant -> colony ++ : getCollectCapacity()
    return collectCapacity

    alt nbFood < collectCapacity
        ant -> ant : setFoodCollected(nbFood)
        ant -> destination : setFood(0)
    else
        ant -> ant : setFoodCollected(collectCapacity)
        ant -> destination : setFood(nbFood - collectCapacity)
    end
    ant -> ant : setIsBacktracking(true)
end
deactivate ant





@enduml

@startuml
skinparam style strictuml
hide footbox

participant ":Ant" as ant
participant "destination:Node" as destination
participant "colony:Queen" as colony


ant -> ant ++ : collect()
ant -> ant ++ : getFoodCollected()
return foodCollected

alt foodCollected != 0
    ant -> ant ++ : getColony()
    return colony
    ant -> colony ++ : getCollectCapacity()
    return collectCapacity

    alt nbFood < collectCapacity
        ant -> ant : setFoodCollected(nbFood)
        ant -> destination : setFood(0)
    else
        ant -> ant : setFoodCollected(collectCapacity)
        ant -> destination : setFood(nbFood - collectCapacity)
    end
    ant -> ant : setIsBacktracking(true)
end
deactivate ant





@enduml

PlantUML version 1.2021.2(Sun Mar 07 12:10:27 CET 2021)
(GPL source distribution)
Java Runtime: OpenJDK Runtime Environment
JVM: OpenJDK 64-Bit Server VM
Default Encoding: UTF-8
Language: fr
Country: FR
--></g></svg>