<?xml version="1.0" encoding="UTF-8" standalone="no"?><svg xmlns="http://www.w3.org/2000/svg" xmlns:xlink="http://www.w3.org/1999/xlink" contentScriptType="application/ecmascript" contentStyleType="text/css" height="612px" preserveAspectRatio="none" style="width:465px;height:612px;" version="1.1" viewBox="0 0 465 612" width="465px" zoomAndPan="magnify"><defs/><g><!--MD5=[e5168f4970614e1706ed633636598618]
class AntFacadeController--><rect codeLine="10" fill="#FEFECE" height="53.9375" id="AntFacadeController" style="stroke:#A80036;stroke-width:1.5;" width="146" x="92" y="7"/><text fill="#000000" font-family="sans-serif" font-size="12" font-style="italic" lengthAdjust="spacing" textLength="67" x="131.5" y="23.1387">«interface»</text><text fill="#000000" font-family="sans-serif" font-size="12" font-style="italic" font-weight="bold" lengthAdjust="spacing" textLength="140" x="95" y="37.1074">AntFacadeController</text><line style="stroke:#A80036;stroke-width:1.5;" x1="93" x2="237" y1="44.9375" y2="44.9375"/><line style="stroke:#A80036;stroke-width:1.5;" x1="93" x2="237" y1="52.9375" y2="52.9375"/><!--MD5=[0caaa4f4bb527f49867a40fa01201f55]
class STATE--><rect codeLine="14" fill="#FEFECE" height="92.3516" id="STATE" style="stroke:#A80036;stroke-width:1.5;" width="72" x="272" y="513"/><text fill="#000000" font-family="sans-serif" font-size="12" font-style="italic" lengthAdjust="spacing" textLength="49" x="283.5" y="529.1387">«enum»</text><text fill="#000000" font-family="sans-serif" font-size="12" font-weight="bold" lengthAdjust="spacing" textLength="42" x="287" y="543.1074">STATE</text><line style="stroke:#A80036;stroke-width:1.5;" x1="273" x2="343" y1="550.9375" y2="550.9375"/><text fill="#000000" font-family="sans-serif" font-size="11" lengthAdjust="spacing" textLength="28" x="278" y="565.1479">FREE</text><text fill="#000000" font-family="sans-serif" font-size="11" lengthAdjust="spacing" textLength="60" x="278" y="577.9526">OBSTACLE</text><text fill="#000000" font-family="sans-serif" font-size="11" lengthAdjust="spacing" textLength="46" x="278" y="590.7573">ANTHILL</text><line style="stroke:#A80036;stroke-width:1.5;" x1="273" x2="343" y1="597.3516" y2="597.3516"/><!--MD5=[706e73df52f3df32f52be1ce9adb217e]
class Graph--><rect codeLine="21" fill="#FEFECE" height="65.5781" id="Graph" style="stroke:#A80036;stroke-width:1.5;" width="48" x="269" y="239"/><text fill="#000000" font-family="sans-serif" font-size="12" font-weight="bold" lengthAdjust="spacing" textLength="42" x="272" y="255.1387">Graph</text><line style="stroke:#A80036;stroke-width:1.5;" x1="270" x2="316" y1="262.9688" y2="262.9688"/><text fill="#000000" font-family="sans-serif" font-size="11" lengthAdjust="spacing" textLength="30" x="275" y="277.1792">width</text><text fill="#000000" font-family="sans-serif" font-size="11" lengthAdjust="spacing" textLength="35" x="275" y="289.9839">height</text><line style="stroke:#A80036;stroke-width:1.5;" x1="270" x2="316" y1="296.5781" y2="296.5781"/><!--MD5=[3fee75583bb7a64f68d843a3c9534ab3]
class Node--><rect codeLine="25" fill="#FEFECE" height="39.9688" id="Node" style="stroke:#A80036;stroke-width:1.5;" width="41" x="274.5" y="389"/><text fill="#000000" font-family="sans-serif" font-size="12" font-weight="bold" lengthAdjust="spacing" textLength="35" x="277.5" y="405.1387">Node</text><line style="stroke:#A80036;stroke-width:1.5;" x1="275.5" x2="314.5" y1="412.9688" y2="412.9688"/><line style="stroke:#A80036;stroke-width:1.5;" x1="275.5" x2="314.5" y1="420.9688" y2="420.9688"/><!--MD5=[10c50c2e3150e634e5ce95ceba89a534]
class Ant--><rect codeLine="28" fill="#FEFECE" height="53.9375" id="Ant" style="stroke:#A80036;stroke-width:1.5;" width="66" x="99" y="382"/><text fill="#000000" font-family="sans-serif" font-size="12" font-style="italic" lengthAdjust="spacing" textLength="64" x="100" y="398.1387">«abstract»</text><text fill="#000000" font-family="sans-serif" font-size="12" font-style="italic" font-weight="bold" lengthAdjust="spacing" textLength="24" x="120" y="412.1074">Ant</text><line style="stroke:#A80036;stroke-width:1.5;" x1="100" x2="164" y1="419.9375" y2="419.9375"/><line style="stroke:#A80036;stroke-width:1.5;" x1="100" x2="164" y1="427.9375" y2="427.9375"/><!--MD5=[b5524c1f1cf4f7aeecdc9b5af5b05d87]
class Queen--><rect codeLine="32" fill="#FEFECE" height="39.9688" id="Queen" style="stroke:#A80036;stroke-width:1.5;" width="50" x="7" y="539"/><text fill="#000000" font-family="sans-serif" font-size="12" font-weight="bold" lengthAdjust="spacing" textLength="44" x="10" y="555.1387">Queen</text><line style="stroke:#A80036;stroke-width:1.5;" x1="8" x2="56" y1="562.9688" y2="562.9688"/><line style="stroke:#A80036;stroke-width:1.5;" x1="8" x2="56" y1="570.9688" y2="570.9688"/><!--MD5=[ab18ab109d20d07a46d8dcc7319a218d]
class Soldier--><rect codeLine="36" fill="#FEFECE" height="39.9688" id="Soldier" style="stroke:#A80036;stroke-width:1.5;" width="54" x="92" y="539"/><text fill="#000000" font-family="sans-serif" font-size="12" font-weight="bold" lengthAdjust="spacing" textLength="48" x="95" y="555.1387">Soldier</text><line style="stroke:#A80036;stroke-width:1.5;" x1="93" x2="145" y1="562.9688" y2="562.9688"/><line style="stroke:#A80036;stroke-width:1.5;" x1="93" x2="145" y1="570.9688" y2="570.9688"/><!--MD5=[7b5bd88a8a025decccf0c9eac4aaabe9]
class Worker--><rect codeLine="40" fill="#FEFECE" height="39.9688" id="Worker" style="stroke:#A80036;stroke-width:1.5;" width="55" x="181.5" y="539"/><text fill="#000000" font-family="sans-serif" font-size="12" font-weight="bold" lengthAdjust="spacing" textLength="49" x="184.5" y="555.1387">Worker</text><line style="stroke:#A80036;stroke-width:1.5;" x1="182.5" x2="235.5" y1="562.9688" y2="562.9688"/><line style="stroke:#A80036;stroke-width:1.5;" x1="182.5" x2="235.5" y1="570.9688" y2="570.9688"/><!--MD5=[9bc19fadb5fbcea8e0ad391b542b362d]
class ControlAnt--><rect codeLine="43" fill="#FEFECE" height="39.9688" id="ControlAnt" style="stroke:#A80036;stroke-width:1.5;" width="80" x="125" y="122"/><text fill="#000000" font-family="sans-serif" font-size="12" font-weight="bold" lengthAdjust="spacing" textLength="74" x="128" y="138.1387">ControlAnt</text><line style="stroke:#A80036;stroke-width:1.5;" x1="126" x2="204" y1="145.9688" y2="145.9688"/><line style="stroke:#A80036;stroke-width:1.5;" x1="126" x2="204" y1="153.9688" y2="153.9688"/><!--MD5=[e328c16c177ae1fede888adf58d4460f]
reverse link Ant to Queen--><path d="M102.5859,453.1211 C83.694,481.459 60.0517,516.9224 45.4905,538.7642 " fill="none" id="Ant-backto-Queen" style="stroke:#A80036;stroke-width:1.0;"/><polygon fill="none" points="96.9723,448.922,113.8908,436.1639,108.6211,456.6878,96.9723,448.922" style="stroke:#A80036;stroke-width:1.0;"/><!--MD5=[aa722b09dfa1cf5a63ede336d4349abe]
reverse link Ant to Soldier--><path d="M127.8943,456.374 C125.4889,484.1285 122.575,517.7505 120.7538,538.7642 " fill="none" id="Ant-backto-Soldier" style="stroke:#A80036;stroke-width:1.0;"/><polygon fill="none" points="120.945,455.4847,129.6458,436.1639,134.8927,456.6936,120.945,455.4847" style="stroke:#A80036;stroke-width:1.0;"/><!--MD5=[c8892067b2ec4d30e44d5d5d2177d5b0]
reverse link Ant to Worker--><path d="M155.2715,454.3341 C169.7119,482.4646 187.5596,517.2329 198.6123,538.7642 " fill="none" id="Ant-backto-Worker" style="stroke:#A80036;stroke-width:1.0;"/><polygon fill="none" points="148.8503,457.1533,145.9441,436.1639,161.3052,450.7598,148.8503,457.1533" style="stroke:#A80036;stroke-width:1.0;"/><!--MD5=[ec5b6763ef85bdc9e5bae8dc40bc12c1]
reverse link AntFacadeController to ControlAnt--><path d="M165,81.7363 C165,95.8621 165,110.5674 165,121.9155 " fill="none" id="AntFacadeController-backto-ControlAnt" style="stroke:#A80036;stroke-width:1.0;stroke-dasharray:7.0,7.0;"/><polygon fill="none" points="158.0001,81.253,165,61.253,172.0001,81.2529,158.0001,81.253" style="stroke:#A80036;stroke-width:1.0;"/><!--MD5=[fb7add3d04029a548e9a9a347d9aecd1]
link Node to Node--><path codeLine="47" d="M315.7812,398.7585 C332.8124,394.5237 350.5,397.9375 350.5,409 C350.5,420.0625 332.8124,423.4763 315.7812,419.2415 " fill="none" id="Node-Node" style="stroke:#A80036;stroke-width:1.0;"/><polygon fill="#000000" points="354.2935,413.9187,359.3282,405.85,353.624,404.4317,354.2935,413.9187" style="stroke:#000000;stroke-width:1.0;"/><text fill="#000000" font-family="sans-serif" font-size="13" lengthAdjust="spacing" textLength="83" x="369.5" y="413.5669">est voisin de</text><!--MD5=[e361e0ddab4ffa591fd2417aaf2f2025]
link ControlAnt to Graph--><path codeLine="48" d="M184.7195,162.0276 C207.3004,184.9613 244.3062,222.5453 268.6618,247.2815 " fill="none" id="ControlAnt-Graph" style="stroke:#A80036;stroke-width:1.0;"/><polygon fill="#000000" points="237.508,204.1292,233.2561,195.622,229.0678,199.746,237.508,204.1292" style="stroke:#000000;stroke-width:1.0;"/><text fill="#000000" font-family="sans-serif" font-size="13" lengthAdjust="spacing" textLength="74" x="243" y="205.0669">possède un</text><!--MD5=[42aa1678406e0a1c0ab74f7eb572cf90]
link ControlAnt to Ant--><path codeLine="49" d="M162.5196,162.0684 C156.6738,209.3665 142.0258,327.8824 135.377,381.6772 " fill="none" id="ControlAnt-Ant" style="stroke:#A80036;stroke-width:1.0;"/><polygon fill="#000000" points="157.3867,277.0286,161.4129,268.4124,155.5794,267.6914,157.3867,277.0286" style="stroke:#000000;stroke-width:1.0;"/><text fill="#000000" font-family="sans-serif" font-size="13" lengthAdjust="spacing" textLength="81" x="167" y="276.5669">possède des</text><!--MD5=[b633099da10ac253e099b79efabfb3de]
link Graph to Node--><path codeLine="50" d="M293.4841,305.1639 C293.8656,331.2967 294.3851,366.8784 294.7062,388.8726 " fill="none" id="Graph-Node" style="stroke:#A80036;stroke-width:1.0;"/><polygon fill="#000000" points="299.073,348.5659,301.8796,339.4789,296.0023,339.5647,299.073,348.5659" style="stroke:#000000;stroke-width:1.0;"/><text fill="#000000" font-family="sans-serif" font-size="13" lengthAdjust="spacing" textLength="79" x="308" y="348.0669">composé de</text><!--MD5=[44a0082c4d57b8b9ae054de3f547280a]
link Ant to Node--><path codeLine="51" d="M165.3788,409 C197.9779,409 246.58,409 274.0724,409 " fill="none" id="Ant-Node" style="stroke:#A80036;stroke-width:1.0;"/><polygon fill="#000000" points="192.25,397.5664,183.2049,394.6275,183.2049,400.5053,192.25,397.5664" style="stroke:#000000;stroke-width:1.0;"/><text fill="#000000" font-family="sans-serif" font-size="13" lengthAdjust="spacing" textLength="60" x="196.25" y="402.0669">est sur le</text><!--MD5=[4ccebe792655e42faea681608e0ad2d9]
link Node to STATE--><path codeLine="52" d="M296.7532,429.2297 C298.6037,450.5811 301.5827,484.9542 304.01,512.9613 " fill="none" id="Node-STATE" style="stroke:#A80036;stroke-width:1.0;"/><polygon fill="#000000" points="306.4317,479.5477,308.5787,470.2827,302.7228,470.7902,306.4317,479.5477" style="stroke:#000000;stroke-width:1.0;"/><text fill="#000000" font-family="sans-serif" font-size="13" lengthAdjust="spacing" textLength="20" x="315" y="479.0669">est</text><!--MD5=[4fb3db02e58af1b5bd3663bcf688917a]
@startuml
'https://plantuml.com/sequence-diagram
skinparam style strictuml
skinparam classAttributeIconSize 0
skinparam circledCharacterRadius 0
skinparam circledCharacterFontSize 0
skinparam classFontStyle Bold
'autonumber


interface AntFacadeController<<interface>>{

}

enum STATE <<enum>> {
    FREE
    OBSTACLE
    ANTHILL
}


class Graph {
     width
     height
}
class Node{
}

abstract Ant <<abstract>>{

}

class Queen extends Ant{

}

class Soldier extends Ant{

}

class Worker extends Ant{
}

class ControlAnt implements AntFacadeController{

}

Node - Node : est voisin de >
ControlAnt - - Graph : possède un >
ControlAnt - - - Ant : possède des >
Graph - - Node : composé de >
Ant  - Node : est sur le >
Node - -  STATE : est >

@enduml

@startuml
skinparam style strictuml
skinparam classAttributeIconSize 0
skinparam circledCharacterRadius 0
skinparam circledCharacterFontSize 0
skinparam classFontStyle Bold


interface AntFacadeController<<interface>>{

}

enum STATE <<enum>> {
    FREE
    OBSTACLE
    ANTHILL
}


class Graph {
     width
     height
}
class Node{
}

abstract Ant <<abstract>>{

}

class Queen extends Ant{

}

class Soldier extends Ant{

}

class Worker extends Ant{
}

class ControlAnt implements AntFacadeController{

}

Node - Node : est voisin de >
ControlAnt - - Graph : possède un >
ControlAnt - - - Ant : possède des >
Graph - - Node : composé de >
Ant  - Node : est sur le >
Node - -  STATE : est >

@enduml

PlantUML version 1.2021.2(Sun Mar 07 12:10:27 CET 2021)
(GPL source distribution)
Java Runtime: OpenJDK Runtime Environment
JVM: OpenJDK 64-Bit Server VM
Default Encoding: UTF-8
Language: fr
Country: FR
--></g></svg>